<?xml version="1.0" encoding="UTF-8" standalone="no"?><svg xmlns="http://www.w3.org/2000/svg" xmlns:xlink="http://www.w3.org/1999/xlink" fill="#000000" height="1891.1" preserveAspectRatio="xMidYMid meet" version="1" viewBox="-18.5 -15.7 2346.1 1891.1" width="2346.1" zoomAndPan="magnify"><g id="change1_1"><path d="M2327.067,767.994c-0.606-117.667-18.431-235.982-57.23-347.226 c-37.682-108.039-92.459-216.179-181.325-291.095C2001.677,56.467,1892.2,18.866,1778.687,21.139 c-25.149,0.504-50.333,3.002-75.454,6.055c-6.264-1.121-12.816-1.189-19.385-0.045c-18.271,3.185-36.688,5.284-55.162,6.825 c-19.055,1.313-38.231,2.207-57.41,3.271c-100.027-33.766-208.581-52.909-310.203-20.744 c-110.63,35.016-191.129,126.688-234.044,232.054c-33.754,82.874-39.463,174.074-72.49,257.201 c-2.975,7.487-6.244,14.851-9.739,22.108c-0.099-0.014-4.586,8.504-5.931,10.797c-3.015,5.139-6.27,10.131-9.626,15.051 c-5.633,8.257-11.916,16.049-18.535,23.533c-1.569,1.564-3.163,3.104-4.766,4.634c-4.721,4.507-9.694,8.741-14.755,12.858 c-4.479,3.645-9.145,7.056-13.859,10.387c-1.149,0.812-2.313,1.604-3.482,2.387c-0.901,0.573-1.794,1.131-2.427,1.507 c-10.745,6.375-22.077,11.927-33.248,17.507c-21.748,10.863-44.002,20.694-66.484,29.93c-22.774,9.356-45.861,17.938-69.075,26.135 c-1.985,0.701-3.973,1.392-5.961,2.084c-0.167,0.057-0.32,0.109-0.508,0.173c-5.647,1.919-11.305,3.807-16.966,5.685 c-12.301,4.081-24.636,8.056-36.983,11.993c-47.619,15.184-95.491,29.564-143.001,45.094 c-95.97,31.369-192.333,67.384-276.672,123.888c-94.003,62.979-175.998,151.3-208.969,261.524 c-32.036,107.099-3.682,219.335,47.53,315.2c49.946,93.494,125.896,174.391,208.242,240.242 c95.87,76.666,206.07,132.32,325.837,159.859c118.071,27.148,243.799,20.032,359.79-13.465 c61.64-17.801,121.161-41.895,177.923-71.759c57.51-30.258,111.28-66.885,163.787-105.034 c44.221-32.129,87.354-65.728,131.666-97.734c0.334-0.241,0.669-0.479,1.003-0.72c1.309-0.925,3.884-2.751,5.208-3.677 c5.192-3.628,10.417-7.211,15.653-10.774c11.256-7.659,22.651-15.109,34.162-22.379c21.945-13.858,44.491-26.757,67.642-38.493 c5.561-2.818,11.177-5.522,16.812-8.186c2.389-1.129,9.994-4.468,12.803-5.729c10.479-4.295,21.089-8.269,31.79-11.973 c23.265-8.052,47.099-14.367,71.222-19.242c0.106,0.082,12.999-2.149,16.361-2.623c6.958-0.979,13.94-1.767,20.928-2.493 c15.038-1.563,30.116-2.247,45.211-2.953c24.211-1.132,48.37-3.322,72.384-6.605c94.387-12.903,186.543-43.326,264.215-99.567 c77.662-56.233,133.984-137.476,168.632-226.161C2312.985,994.751,2327.641,879.118,2327.067,767.994z" fill="#f5aab9"/></g></svg>