<?xml version="1.0" encoding="UTF-8" standalone="no"?><svg xmlns="http://www.w3.org/2000/svg" xmlns:xlink="http://www.w3.org/1999/xlink" fill="#000000" height="1327.9" preserveAspectRatio="xMidYMid meet" version="1" viewBox="-0.9 125.5 1579.3 1327.9" width="1579.3" zoomAndPan="magnify"><g id="change1_1"><path d="M230.9,1405.3c-12.4-6.2-24.9-11.7-36.7-18.4c-14.5-8.2-29-16.7-42.6-26.3c-12.2-8.6-23.4-18.7-34.7-28.5 c-6.6-5.8-12.9-12.1-18.7-18.7c-8.3-9.6-16.5-19.3-24-29.6c-7.6-10.5-14.7-21.5-21.3-32.7c-6-10.1-11.5-20.6-16.3-31.2 c-8-17.7-16.2-35.4-22.4-53.7c-4.9-14.3-6.9-29.5-10.2-44.3c-4.9-22.4-4.3-45.1-3.9-67.8c0.2-7.9,1.8-15.8,3-23.7 c0.8-5.1,1.8-10.2,2.9-15.3c1.6-7.7,3.1-15.3,5-22.9c2.8-11,5.8-21.9,9-32.8c1.6-5.3,3.9-10.4,5.9-15.5 c6.1-15.9,13.1-31.4,22.3-45.8c7.2-11.3,13.8-23,21.3-34.1c7.8-11.5,16-22.9,24.8-33.7c9.1-11.3,18.7-22.5,28.9-32.8 c5.8-5.8,11-12,16.2-18.2c6.5-7.8,14.8-14.1,21.9-21.4c10.2-10.5,20.7-20.8,29.9-32.1c10.4-12.7,20.3-26,28.9-40 c7.1-11.6,12.4-24.5,17.6-37.1c4.4-10.5,7.7-21.5,11.2-32.4c1.4-4.5,2-9.2,2.9-13.8c1.1-5.7,2.1-11.5,3.1-17.2 c1-5.8,1.8-11.6,2.9-17.3c1.2-6.5,2.5-12.9,3.8-19.4c0.1-0.3,0.1-0.6,0.1-0.9c0.7-9.4,1.1-18.8,2.1-28.2c1.1-11.1,2.6-22.2,3.9-33.3 c0.7-5.7,1-11.5,2.1-17.2c2.1-11.2,3.7-22.7,7.2-33.5c4.3-13.1,9.4-26.2,16-38.3c6.4-11.7,14.6-22.6,23.1-32.9 c12.2-14.8,27.5-26.7,42.5-38.5c10.3-8.1,21.8-14.8,32.9-21.8c7.5-4.7,15.3-8.8,23.1-13.1c8.4-4.6,16.5-10.1,25.4-13.6 c16.3-6.4,33.1-11.9,49.8-17.4c9.3-3,18.7-5.8,28.2-7.8c12-2.5,24.3-4.1,36.4-6.3c5.5-1,11-2.5,16.5-3.7c0.5-0.1,0.9-0.2,1.4-0.2 c10.7-0.7,21.4-1.4,32.2-2c11.2-0.7,22.5-2.1,33.7-1.8c11.8,0.4,23.6,2.5,35.3,3.8c1.8,0.2,3.7,0.1,5.5,0 c12.1-0.5,23.6,2.3,35.1,5.7c8.6,2.5,17.8,3.1,26.7,4.3c11.3,1.5,22.5,2.8,33.8,4c3,0.3,6,0,9,0c10.3,0,20.7,0.4,31-0.1 c7.4-0.4,14.7-2.2,22-3.4c0.6-0.1,1.2-0.5,1.8-0.4c8.7,0.5,16.9-2.6,25.4-3.7c10.9-1.4,21.1-4.3,31.2-8.2c10.2-4,20.4-8,30.4-12.4 c11.1-4.9,22.2-10.2,33-15.7c9.6-5,18.6-11.3,28.5-15.8c13.8-6.3,28.3-11.3,42.3-17.3c8.6-3.7,16.9-8.2,25.4-12.3 c3.5-1.7,7-3.1,10.6-4.6c14.5-5.9,28.9-12.3,43.7-17.6c13.6-4.8,27.3-9.5,41.4-12.1c16.6-3.1,33.2-6.8,50.5-6.5 c11.4,0.2,22.4,2,33.3,4.4c11.7,2.7,23,7,34.5,10.8c13.3,4.4,25.5,11.3,37.2,18.7c13,8.3,24.7,18,36.5,28c19,16,32.8,35.8,45.2,56.8 c7,11.8,13.4,24.1,19,36.6c7,15.8,13.3,31.8,19,48.1c4.1,11.8,6.8,24.2,10.2,36.3c3.4,12.1,7,24.1,10.2,36.3 c2.3,8.8,3.7,17.8,5.8,26.6c3.9,16,8,32,12,48c2.4,9.7,4.5,19.5,7.1,29.1c4.5,16.8,9,33.6,14,50.2c6.3,20.8,12.9,41.6,20,62.2 c8,23.3,16.7,46.4,24.9,69.7c10.2,28.8,20.7,57.5,30.2,86.5c4,12.1,6,24.9,8.7,37.4c2.1,9.8,4.3,19.6,5.9,29.5 c1.1,7,1.8,14.1,2,21.2c0.8,23.4,1.9,46.8,1.8,70.2c0,9.8-2.5,19.6-3.8,29.3c-0.1,0.8,0.1,1.7,0,2.5c-1.3,8.1-2.6,16.3-3.9,24.4 c-1.3,7.9-2.6,15.9-4.1,23.8c-3.3,18.4-8.8,36.2-14.9,53.8c-4.9,14-10.7,27.5-16.6,41.1c-9.4,21.8-21.3,42.1-34.7,61.7 c-10.4,15.3-22.3,29.2-35.9,41.5c-11.4,10.4-23.5,20.2-35.7,29.7c-9.8,7.7-19.8,15.4-30.5,21.7c-13.1,7.8-26.8,14.7-40.8,21 c-10.8,4.9-22.1,8.7-33.5,12.1c-18.3,5.4-36.7,10.4-55.3,15c-9.8,2.4-19.9,4.7-29.9,4.7c-8,0-15.4,3.5-23.3,2.4 c-6-0.8-11.7,1.8-17.3,1.7c-13.6-0.2-26.9,1.8-40.3,2.2c-14,0.4-28.1,1-42-0.2c-13.1-1.1-26.5-0.2-39.4-3.7c-0.2,0-0.3,0-0.5,0 c-10.4-0.7-20.8-1.1-31.2-2.1c-9.7-1-19.2-2.6-28.9-3.9c-6-0.8-12.1-1.2-18.2-2.1c-8.3-1.2-16.6-2.7-24.8-3.9 c-5.2-0.8-10.4-1.5-15.7-2c-8.5-0.8-17.2-0.9-25.7-2.1c-16.4-2.4-32.8-2.1-49.2-1.8c-11.7,0.2-23.5,0.7-35.2,2.1 c-12.2,1.4-24.3,4.1-36.5,5.8c-26.6,3.6-52.5,10.1-77.8,19.2c-13.3,4.8-26.5,10.1-39.4,16c-20.2,9.3-40.1,19-60,29 c-10,5-19.4,11.1-29.2,16.4c-11.3,6.2-22.5,12.3-34,18c-20.2,10-40.5,19.5-61.4,27.9c-19,7.6-38.6,12.5-58.3,17.4 c-7,1.7-14.5,1.9-21.8,2.1c-11,0.3-22-0.1-33,0.1c-12.3,0.2-24.3-1.5-36.4-3.8c-19.3-3.8-38.5-7.9-57.1-14.3 c-12-4.1-23.8-8.4-35.5-13.2C255.2,1416.8,243.3,1411,230.9,1405.3z" fill="#61cdf6"/></g></svg>