<?xml version="1.0" encoding="UTF-8" standalone="no"?><svg xmlns="http://www.w3.org/2000/svg" xmlns:xlink="http://www.w3.org/1999/xlink" fill="#000000" height="65.9" preserveAspectRatio="xMidYMid meet" version="1" viewBox="7.3 15.4 81.2 65.9" width="81.2" zoomAndPan="magnify"><g id="change1_1"><path d="M10.46,54.08c1.45-2.92,3.86-5.54,4.05-8.79c0.28-4.71-4.23-8.83-3.58-13.5c0.52-3.75,4.25-6.28,7.95-7.1 c3.69-0.82,7.55-0.43,11.3-0.96c4.71-0.66,9.08-2.74,13.44-4.63s8.93-3.66,13.68-3.64c4.75,0.02,9.78,2.21,11.91,6.46 c1.27,2.52,1.4,5.46,2.39,8.1c1.86,4.97,6.44,8.29,10.12,12.1c3.69,3.81,6.75,9.4,4.61,14.25c-2.33,5.28-9.29,6.57-13.25,10.76 c-3.7,3.91-4.79,10.35-9.66,12.65c-3.31,1.56-7.27,0.56-10.58-1.01c-3.31-1.57-6.41-3.71-9.98-4.51 c-8.54-1.91-17.77,2.76-26.33-0.22C9.07,71.42,7.29,60.45,10.46,54.08z" fill="#f5aab9"/></g></svg>