<?xml version="1.0" encoding="UTF-8" standalone="no"?><svg xmlns="http://www.w3.org/2000/svg" xmlns:xlink="http://www.w3.org/1999/xlink" fill="#000000" height="602.7" preserveAspectRatio="xMidYMid meet" version="1" viewBox="-1.8 -1.2 1054.9 602.7" width="1054.9" zoomAndPan="magnify"><g id="change1_1"><path d="m40.2363551,438.3973418c5.1763697-.0820721,12.1587746.7023657,15.7858065,1.7150962,3.4142489.9536471,9.3532869,1.966429,13.2620508,2.2460301,6.5801462.4711158,17.3298968,3.3201789,63.38518,16.3027361,34.1077469,9.6151449,99.4842561,30.9956927,158.7251954,51.8444182,107.006651,37.6593435,142.1842258,49.6406888,174.9378009,59.0890463,18.0909734,5.2183172,39.1043608,11.4157927,46.7717339,13.5993453,7.6682652,2.1836162,21.1475217,5.7932206,30.0536829,7.8183814,8.8823278,2.0198775,19.9789556,5.1541106,24.6111613,6.638751,4.6379093,1.4863914,9.9110698,1.7891473,11.7427588.5508062,1.8316889-1.2383411,4.5565142-.9977411,6.22077.2796525,1.6638416,1.2769158,3.826287,1.7908601,4.5332163,1.0992076.9882946-.8276396,5.6150708-.727812,10.0704184-.0273283,12.605711,1.981421,19.2520958-2.4707314,23.7522265-16.5882213,5.9815503-18.761133,7.878023-31.659819,7.5958139-47.6783707-.0911204-5.1752205,1.2035882-15.0242019,2.6212552-21.7889237,1.4630177-6.9798274,1.8928044-12.9164318,1.0561881-13.2055308-.8357241-.2890355-.1510184-6.3679929,1.3380312-13.3419323,1.5357067-7.1885037,1.9807703-14.5236897.7424293-16.3553787-1.1660028-2.0417351-1.1119135-8.337293-.0528803-14.0569461,1.099031-5.9351398,1.3757132-14.0476026.4844253-18.3172324-1.4795475-7.0902223-2.7751006-8.2126996-11.7615883-11.3200059-5.4339593-1.8793038-21.8323615-5.8590092-36.0572144-8.7250182-29.9533707-6.0345301-48.6841964-11.4530689-49.2156081-13.9764103-.1287948-.9806879,2.1883502-1.6070284,5.1193718-1.2714997,3.1453894.3597555,12.7358769-.2249327,21.2009918-1.0919281,8.7581988-.8967921,17.4245104-.9940379,19.3051127-.3436921,1.8810801.6499314,8.7430157.4941748,15.1099088-.3908292,19.9835869-2.7768695,38.5119843-4.4652357,40.8108947-3.6703404,1.4627085.5062741,2.7971.0314459,3.2302072-1.2221721.3617881-1.0452925,1.9766527-1.6561714,3.6489931-1.0780369,2.7163264.9393812,44.6639947-2.4702567,57.3265141-4.7443232,3.5095484-.6306726,7.980662-.7499488,9.6525881-.1722921,1.6718626.5785488,4.6857868-.0174675,6.7266298-1.1835338,2.0412573-1.1655885,5.4725975-1.6171188,7.771508-.8222236,2.2989104.7948952,7.1292467.3591196,10.8500368-.927657,3.72079-1.2867766,8.5511263-1.7225522,10.6408827-.9999317,2.0897564.7226205,4.4685482.6095169,5.6660604-.1467401,1.6952239-1.5192921,15.0039975-3.4689437,33.1995639-4.6636368,4.5489075-.2988963,11.5454673-.9413646,15.7517557-1.5726502,29.5373684-4.4329765,84.9489391-10.8693065,86.8295415-10.2189607,1.2540322.433585,5.3681772-.0684177,9.0336247-1.0878977,3.8405769-1.0675367,9.6031969-2.0605646,12.9631545-2.3028774,3.2867907-.0332222,10.8491446-.9277205,16.8693229-1.4200162,6.0197005-.4918814,17.2871532-1.2750524,25.0510545-1.3984311,7.7634235-.1229644,17.432361-.9405767,21.6269067-1.6462234,4.0035455-.6739628,10.4294091-1.0459205,14.2741846-.6798647,3.6301537.3453975,12.1870946-.6464202,18.9743562-2.0959774,6.6019348-1.4093997,12.5452607-2.446949,12.9631545-2.3028774.6269844.2172386,5.6120767-.5912861,10.9299182-1.8356559,7.1670877-1.677615,10.6593008-4.0485726,13.1054499-8.8046619,3.1761628-6.1750742,3.6194742-17.2328238.4848396-18.3167545-.8366162-.289099-.9573266-1.9690461-.3792556-3.6404943.5781345-1.6723404.0390526-3.4959448-1.0062399-3.8577329-1.2531401-.4335215-1.5834823-2.185329-.9335509-4.0664091.6508236-1.8810166-.1350834-6.8815351-1.8998461-11.4200233-1.7046667-4.3813314-2.551084-9.5394845-1.973013-11.2109327.6508236-1.8810166-.7605576-7.9764857-2.994052-13.6704981-7.103996-18.1082847-9.0819731-25.836089-7.9257676-29.1798776.6499314-1.8810801-.0897422-4.4766327-1.5448441-5.6817516-1.4551018-1.2051189-3.6839916-8.2926446-4.93213-15.5098573-1.2481384-7.2172127-4.0851281-15.7571117-6.0820273-18.9492185-1.9231763-3.0752258-4.0317376-7.9484287-4.5604811-11.1705181-1.4266588-8.6896659-9.304601-15.7874993-20.9185917-17.9960095-5.499999-1.0460864-10.8257833-1.1701204-11.7422809-.5512205-.9883581.8285317-3.5763041.8693606-5.6660604.1467401-2.2989104-.7948952-11.5200082-.3798288-20.6390263.818106-9.0208568,1.1856447-25.7576008,2.8908185-37.1057958,3.7816677-11.2602917.8841055-22.6080724,1.7754325-25.4123648,2.4433093-2.7324954.459137-8.3386477,1.042775-12.1839504,1.4020709-4.1368895.3869575-9.1054852,1.2975296-11.138658,1.7638589-2.0332363.4672215-6.4456788,1.0470688-9.8774333,1.4981213-3.3590655.2423763-22.8061591,2.5490374-43.1331665,4.973286-20.4282594,2.4358703-38.0864203,3.9095704-39.1312985,3.5482602-1.0448782-.3613102-3.4317545.4510525-5.4730754,1.6175331-2.040843,1.1660663-5.0542894,1.7616683-6.7266298,1.1835338-2.7163264-.9393812-14.7333003.1638874-26.0389348,2.2265485-9.9311399,1.8117118-90.2842762,10.3693448-116.646742,12.5432725-5.3255219.4390804-14.0757067,1.4059333-19.6013405,1.8787389-5.32453.4566357-10.9865018.646706-12.6588421.0685715-1.4622942-.5057962-4.825663-.2722445-6.9999741.621154-2.4624989,1.0118637-9.6684305,1.6040096-15.9609097,1.5003754-6.5028914-.1078532-19.5205145.1261638-29.2390661.6519714-9.5961425.5192786-18.3316171.9142199-19.5856494.4806349-1.0448782-.3613102-6.4218134-.276928-12.0317943.2849179-17.82746,1.7862351-69.4480506.5526084-70.4049628-1.4159598-.8204472-1.6876172,20.0344404-16.0615893,23.8891058-16.3067925,1.1884993-.0754453,2.3940687-1.5116854,2.9003428-2.9743939,1.0117195-2.9263726,40.0417021-22.42068,42.9671826-21.409024,2.0901707.7230983,3.4446186-9.1274586,2.5974796-19.6915606-.3477217-4.3416707.1665489-8.5995619,1.2267039-9.6368334,1.1974487-.7553649,1.7324835-2.9243787,1.1718967-4.7418925-1.3027647-4.2267417-1.2046799-17.4569902.5217016-27.8970679.7296789-4.4120234.8007891-9.0825381-.0273283-10.0704184-.8285317-.9883581-.7970859-3.7854581-.0021906-6.0843685.8675843-2.5075867.8507933-6.4975256-.0426052-8.6718366-1.012278-2.4629767-1.6763073-12.7463938-1.6309466-23.0254884.0449464-10.2795725.0185835-20.8421825-.0882931-23.4281053-.4448827-10.7923563-5.1168799-42.715687-6.0899611-43.285737-5.9002887-3.9124766-17.092335-6.8903122-19.7323895-5.1854255-1.8580475,1.1992537-4.3554446,1.769275-5.4003228,1.4079647-1.0448782-.3613102-4.0592167.2342282-6.5901648,1.4644848-5.9066604,2.8715654-21.4048805,19.2722177-20.8734687,21.795559.3379489,1.0529627-3.7705523,3.3020396-8.7266439,4.937546-5.0832396,1.6771157-9.7715221,4.5762358-10.3496566,6.2485762-.578071,1.6714482-4.1777364,4.6386497-8.115765,6.5524107-3.9371365,1.9138245-7.3195633,4.2540416-7.7535627,5.507596-.433585,1.2540322-6.314668,4.8936051-13.0978432,8.1058171-6.9260882,3.2800468-16.5066366,9.5757526-21.4865382,14.0963258-4.9146643,4.4606586-12.9770694,9.784872-17.5493382,12.1816092-4.7091482,2.1153084-15.1028404,9.0139586-22.9649379,14.9881557-8.0086002,6.0861605-16.0704063,11.250813-18.1683016,11.2660036-5.6675512.0417261-24.9237256,11.0213672-28.2207747,15.9787044-1.5147398,2.2777041-4.307009,3.6583761-5.9784573,3.0803051-1.4631863-.5058598-5.6444059,1.2973375-8.6471768,4.0290693-3.1461466,2.8627475-7.3274483,4.9882843-9.2163346,5.0022141-7.6923253.0562938-77.7394838,35.3557906-79.4742381,40.3714417-.433585,1.2540322-3.3182366,2.8303222-6.4039578,3.6350782-6.1723345,1.6094486-21.7742261,8.8546581-38.8055517,18.1680003-5.7681238,3.1549054-24.1566023,11.8269206-40.5650293,19.1980795-16.5551958,7.4364775-37.0700909,16.3668866-45.3302197,20.1231315-8.3995701,3.8193954-17.2100387,7.1697334-19.4559704,7.5451501-7.4151683,1.2389779-14.2624762,13.1109449-16.2577026,28.070722-.9858929,7.3939721-2.4861522,15.9864617-3.289132,18.9846313-.5938257,3.0704443-.986104,6.9120082-.5839649,8.4550759.3303422,1.7518075-.482943,4.0256476-2.0157053,5.1521162-3.8550649,2.8329041-9.5175722,19.4047157-7.0099855,20.2723,1.2540322.433585.2948721,3.8434065-1.9820688,8.4393847-2.3743252,4.792585-3.4044262,10.5214709-2.8891835,14.4433305.4514668,3.4322324-.015062,10.5399348-.9430845,15.5843226-.9339408,5.0771425-1.2989787,9.8459875-1.0256344,10.4083673.2737586.5628576-1.0040493,2.2266357-2.9726175,3.1835479-2.6754976,1.6485647-3.0463007,2.7008369-1.2437571,4.9515244,1.3039264,1.6283352,1.6404802,3.3747567.5875175,3.7127055-.9160834.6193777-1.6348415,4.6008903-1.2908942,9.1467283.3283187,4.3434277-.0291917,8.8805764-.5992417,9.8536576-2.201498,2.9820005,5.5647903,13.7517335,13.5640219,18.9631334,4.4045389,2.8689992,9.5744195,6.8204896,11.9303278,8.8048125,2.2827414,2.1934135,4.2926164,3.8240329,4.5017704,3.8963076.2814288-.1368793,4.6857868-.0174675,9.8612643-.0996031Z" fill="#414042"/></g></svg>