<?xml version="1.0" encoding="UTF-8" standalone="no"?>
<!-- Created with Inkscape (http://www.inkscape.org/) -->

<svg
   version="1.1"
   id="svg1"
   width="227.93869"
   height="258.03442"
   viewBox="0 0 227.93869 258.03442"
   xmlns:xlink="http://www.w3.org/1999/xlink"
   xmlns="http://www.w3.org/2000/svg"
   xmlns:svg="http://www.w3.org/2000/svg">
  <defs
     id="defs1">
    </defs>
  <g
     id="layer-MC0"
     transform="translate(-1041.4916,-2173.6023)">
    <path
       d="m 1099.8705,2174.2781 c -0.7568,-0.1099 -0.2651,1.0565 1.8535,3.873 -27.2573,10.5507 -45.7414,31.7667 -47.3027,60.9453 -3.0867,32.1267 -23.1068,27.7484 -4.3281,41.5137 10.6173,11.92 28.7121,24.3518 41.7988,37.6465 27.6693,-34.8613 -1.1506,-71.7818 60.0547,-94.7578 -0,-0 16.5351,14.9297 16.5351,14.9297 -0.7973,2.7466 0.4474,5.6363 2.4434,7.5429 2.492,2.412 6.0919,3.3715 9.5039,3.2461 l 20.5566,18.5664 c 7.5894,-0.936 -16.7063,-17.7574 -16.7636,-19.164 9.4426,-2.5827 16.8859,-11.7481 26.9765,-12.2188 30.8973,5.1134 42.5844,52.9632 28.4844,77.7871 -0.079,0.059 -0.2014,0.1669 -0.025,0.047 0,0 0,0 0,0 0,0 0,0 0,0 -34.9507,34.584 -168.4641,25.9894 -155.1348,86.4453 7.0533,23.568 42.7828,33.6785 65.2188,29.2852 v -0 c 0,0 0,-0 0,-0 -14.424,-6.7987 -43.275,-22.514 -26.795,-41.6699 0,0 -0,0 -0,0 0,0 0,0 0,0 0,0 0,0 0,0 0,-0 0.01,-0 0.01,-0.01 0,0 0,0 0,0 0.5915,-0.3657 1.1898,-0.7054 1.7891,-1.0117 -0.069,0.024 -0.1403,0.047 -0.2109,0.072 0.22,-0.108 0.4452,-0.2074 0.6718,-0.3007 -0.1546,0.076 -0.3076,0.1485 -0.4609,0.2285 18.328,-5.8107 30.0196,19.2321 29.6289,34.6054 -1.9013,10.396 16.1954,6.5945 23.1367,6.3145 -0.01,-0.01 -0.01,-0.014 -0.014,-0.022 1.1733,-0.24 2.3339,-0.5414 3.4765,-0.9121 -6.1386,-10.1653 -8.8884,-27.281 4.4903,-32.873 0,0 0,0 0,0 26.4173,9.4159 -8.8604,46.8719 37.4062,23.0586 1.2147,-1.9614 6.4507,-2.1209 6.1641,-4.9649 -2.292,-20.9986 7.8688,-41.6915 18.2168,-59.3008 0,0 0,0 0,0 12.6906,-20.436 24.24,-44.167 20.9414,-68.8457 -1.12,-31.1666 -82.3928,-115.3117 -90.9395,-56.9238 -2.0813,3.0733 -5.676,4.8488 -7.5547,8.1328 1.9565,2.7848 -64.5304,-60.4964 -69.8281,-61.2656 z"
       style="fill:none;stroke:#ffffff;stroke-miterlimit:10"
       id="path1811" />
  </g>
</svg>
